<svg width="64" height="64" viewBox="0 0 64 64" fill="none" xmlns="http://www.w3.org/2000/svg">
<path d="M60 48C60 50.2091 58.2091 52 56 52H8C5.79086 52 4 50.2091 4 48V24C4 21.7909 5.79086 20 8 20H12.6863C15.8689 20 18.9211 18.7357 21.1716 16.4853L24.4853 13.1716C25.2354 12.4214 26.2528 12 27.3137 12H36.6863C37.7472 12 38.7646 12.4214 39.5147 13.1716L42.8284 16.4853C45.0789 18.7357 48.1311 20 51.3137 20H56C58.2091 20 60 21.7909 60 24V48ZM8 16C3.58172 16 0 19.5817 0 24V48C0 52.4183 3.58172 56 8 56H56C60.4183 56 64 52.4183 64 48V24C64 19.5817 60.4183 16 56 16H51.3137C49.192 16 47.1571 15.1571 45.6569 13.6569L42.3431 10.3431C40.8429 8.84286 38.808 8 36.6863 8H27.3137C25.192 8 23.1571 8.84285 21.6569 10.3431L18.3431 13.6569C16.8429 15.1571 14.808 16 12.6863 16H8Z" fill="white"/>
<path d="M32 44C26.4772 44 22 39.5228 22 34C22 28.4772 26.4772 24 32 24C37.5229 24 42 28.4772 42 34C42 39.5228 37.5229 44 32 44ZM32 48C39.732 48 46 41.732 46 34C46 26.268 39.732 20 32 20C24.268 20 18 26.268 18 34C18 41.732 24.268 48 32 48Z" fill="white"/>
<path d="M12 26C12 27.1046 11.1046 28 10 28C8.89543 28 8 27.1046 8 26C8 24.8954 8.89543 24 10 24C11.1046 24 12 24.8954 12 26Z" fill="white"/>
</svg>
