<svg width="20" height="20" viewBox="0 0 20 20" fill="none" xmlns="http://www.w3.org/2000/svg">
<path d="M2.5 1.25C1.80964 1.25 1.25 1.80964 1.25 2.5V17.5C1.25 18.1904 1.80964 18.75 2.5 18.75H17.5C18.1904 18.75 18.75 18.1904 18.75 17.5V2.5C18.75 1.80964 18.1904 1.25 17.5 1.25H11.875C11.1846 1.25 10.625 1.80964 10.625 2.5V11.6161L13.9331 8.30806C14.1771 8.06398 14.5729 8.06398 14.8169 8.30806C15.061 8.55214 15.061 8.94786 14.8169 9.19194L10.4419 13.5669C10.1979 13.811 9.80214 13.811 9.55806 13.5669L5.18306 9.19194C4.93898 8.94786 4.93898 8.55214 5.18306 8.30806C5.42714 8.06398 5.82286 8.06398 6.06694 8.30806L9.375 11.6161V2.5C9.375 1.11929 10.4943 0 11.875 0H17.5C18.8807 0 20 1.11929 20 2.5V17.5C20 18.8807 18.8807 20 17.5 20H2.5C1.11929 20 0 18.8807 0 17.5V2.5C0 1.11929 1.11929 0 2.5 0H5.625C5.97018 0 6.25 0.279822 6.25 0.625C6.25 0.970178 5.97018 1.25 5.625 1.25H2.5Z" fill="#393939"/>
</svg>
